<svg xmlns="http://www.w3.org/2000/svg" xmlns:xlink="http://www.w3.org/1999/xlink" id="body_1" preserveAspectRatio="xMinYMin meet" viewBox="0 0 793 1123"><defs><clipPath id="1">
<path clip-rule="evenodd" d="M0 842L0 0L0 0L595 0L595 0L595 842L595 842L0 842z" /></clipPath><clipPath id="2"><path clip-rule="evenodd" d="M0.029999 0.02001953L0.059998 0.02001953L0.059998 0.02001953L0.059998 0.05975342L0.059998 0.05975342L0.029999 0.05975342z" /></clipPath><clipPath id="3"><path clip-rule="evenodd" d="M0.029999 277.38L19.86 277.38L19.86 277.38L19.86 277.8L19.86 277.8L0.029999 277.8z" /></clipPath><clipPath id="4"><path clip-rule="evenodd" d="M575.22 277.8L595.02 277.8L595.02 277.8L595.02 277.38L595.02 277.38L575.22 277.38z" /></clipPath><clipPath id="5"><path clip-rule="evenodd" d="M0.029999 558.18L20.04 558.18L20.04 558.18L20.04 558.6L20.04 558.6L0.029999 558.6z" /></clipPath><clipPath id="6"><path clip-rule="evenodd" d="M575.22 558.6L595.02 558.6L595.02 558.6L595.02 558.1801L595.02 558.1801L575.22 558.1801z" /></clipPath></defs><g transform="matrix(1.333333 0 0 1.333333 0 0)"><g clip-path="url(#1)"><path transform="matrix(1 0 0 -1 0 842)" d="M235.56 683L178.8 683L178.8 683L178.8 660.44L178.8 660.44L235.56 660.44z" stroke="#000000" stroke-width="0.2" fill="#E4E4E4" fill-rule="evenodd" /><path transform="matrix(1 0 0 -1 0 842)" d="M566.94 648.98L113.4 648.98L113.4 648.98L113.4 626.66L113.4 626.66L566.94 626.66z" stroke="#FFFFFF" stroke-width="0.2" fill="#E4E4E4" fill-rule="evenodd" /><path transform="matrix(1 0 0 -1 0 842)" d="M567.18 694.4L113.58 694.4L113.58 694.4L113.58 626.48L113.58 626.48L567.18 626.48z" stroke="#000000" stroke-width="0.2" fill="none" /><path transform="matrix(1 0 0 -1 0 842)" d="M566.94 683L312 683L312 683L312 660.44L312 660.44L566.94 660.44z" stroke="#FFFFFF" stroke-width="0.2" fill="#E4E4E4" fill-rule="evenodd" /><path transform="matrix(1 0 0 -1 0 842)" d="M566.76 807.8L28.20001 807.8L28.20001 807.8L28.20001 694.46L28.20001 694.46L566.76 694.46z" stroke="#000000" stroke-width="0.2" fill="none" /><path transform="matrix(1 0 0 -1 0 842)" d="M566.82 796.4L28.20001 796.4" stroke="#000000" stroke-width="0.2" fill="none" /><path transform="matrix(1 0 0 -1 0 842)" d="M566.82 779.42L28.20001 779.42" stroke="#000000" stroke-width="0.2" fill="none" /><path transform="matrix(1 0 0 -1 0 842)" d="M566.82 768.02L28.20001 768.02" stroke="#000000" stroke-width="0.2" fill="none" /><path transform="matrix(1 0 0 -1 0 842)" d="M566.82 750.9799L28.20001 750.9799" stroke="#000000" stroke-width="0.2" fill="none" /><path transform="matrix(1 0 0 -1 0 842)" d="M566.82 739.8199L28.20001 739.8199" stroke="#000000" stroke-width="0.2" fill="none" /><path transform="matrix(1 0 0 -1 0 842)" d="M566.82 717.0198L28.20001 717.0198" stroke="#000000" stroke-width="0.2" fill="none" /><path transform="matrix(1 0 0 -1 0 842)" d="M108.36 685.82C 108.36 688.94 105.84 691.4 102.72 691.4L102.72 691.4L37.56 691.4C 34.44 691.4 31.98 688.94 31.98 685.82L31.98 685.82L31.98 629.12C 31.98 626 34.44 623.48 37.56 623.48L37.56 623.48L102.72 623.48C 105.84 623.48 108.36 626 108.36 629.12z" stroke="#000000" stroke-width="0.2" fill="none" /><path transform="matrix(1 0 0 -1 0 842)" d="M49.62 807.8L49.62 779.42" stroke="#000000" stroke-width="0.2" fill="none" /><path transform="matrix(1 0 0 -1 0 842)" d="M66.6 807.8L66.6 779.42" stroke="#000000" stroke-width="0.2" fill="none" /><path transform="matrix(1 0 0 -1 0 842)" d="M384 807.8L384 779.42" stroke="#000000" stroke-width="0.2" fill="none" /><path transform="matrix(1 0 0 -1 0 842)" d="M112.02 807.8L112.02 779.42" stroke="#000000" stroke-width="0.2" fill="none" /><path transform="matrix(1 0 0 -1 0 842)" d="M296.4 807.8L296.4 779.42" stroke="#000000" stroke-width="0.2" fill="none" /><path transform="matrix(1 0 0 -1 0 842)" d="M346.02 807.8L346.02 779.42" stroke="#000000" stroke-width="0.2" fill="none" /><path transform="matrix(1 0 0 -1 0 842)" d="M424.8 807.8L424.8 779.42" stroke="#000000" stroke-width="0.2" fill="none" /><path transform="matrix(1 0 0 -1 0 842)" d="M441.5999 779.42L441.5999 807.8" stroke="#000000" stroke-width="0.2" fill="none" /><path transform="matrix(1 0 0 -1 0 842)" d="M518.8199 750.98L518.8199 807.8" stroke="#000000" stroke-width="0.2" fill="none" /><path transform="matrix(1 0 0 -1 0 842)" d="M177.1799 779.4199L177.1799 750.9799" stroke="#000000" stroke-width="0.2" fill="none" /><path transform="matrix(1 0 0 -1 0 842)" d="M208.3799 779.4199L208.3799 750.9799" stroke="#000000" stroke-width="0.2" fill="none" /><path transform="matrix(1 0 0 -1 0 842)" d="M388.7999 779.4199L388.7999 750.9799" stroke="#000000" stroke-width="0.2" fill="none" /><path transform="matrix(1 0 0 -1 0 842)" d="M473.3999 779.4199L473.3999 750.9799" stroke="#000000" stroke-width="0.2" fill="none" /><path transform="matrix(1 0 0 -1 0 842)" d="M518.8199 717.0199L518.8199 750.9799" stroke="#000000" stroke-width="0.2" fill="none" /><path transform="matrix(1 0 0 -1 0 842)" d="M346.0199 750.9799L346.0199 717.0198" stroke="#000000" stroke-width="0.2" fill="none" /><path transform="matrix(1 0 0 -1 0 842)" d="M242.9999 750.9799L242.9999 717.0198" stroke="#000000" stroke-width="0.2" fill="none" /><path transform="matrix(1 0 0 -1 0 842)" d="M224.5798 750.9799L224.5798 717.0198" stroke="#000000" stroke-width="0.2" fill="none" /><path transform="matrix(1 0 0 -1 0 842)" d="M137.3998 750.9799L137.3998 717.0198" stroke="#000000" stroke-width="0.2" fill="none" /><path transform="matrix(1 0 0 -1 0 842)" d="M117.5998 750.9799L117.5998 717.0198" stroke="#000000" stroke-width="0.2" fill="none" /><path transform="matrix(1 0 0 -1 0 842)" d="M97.79984 750.9799L97.79984 717.0198" stroke="#000000" stroke-width="0.2" fill="none" /><path transform="matrix(1 0 0 -1 0 842)" d="M49.61983 717.0198L49.61983 694.5798" stroke="#000000" stroke-width="0.2" fill="none" /><path transform="matrix(1 0 0 -1 0 842)" d="M314.8198 717.0198L314.8198 694.3998" stroke="#000000" stroke-width="0.2" fill="none" /><path transform="matrix(1 0 0 -1 0 842)" d="M335.9998 717.0198L335.9998 694.3998" stroke="#000000" stroke-width="0.2" fill="none" /><path transform="matrix(1 0 0 -1 0 842)" d="M235.56 694.4L178.8 694.4L178.8 694.4L178.8 660.44L178.8 660.44L235.56 660.44zM396.96 694.4L354.6 694.4L354.6 694.4L354.6 660.6801L354.6 660.6801L396.96 660.6801zM439.38 694.4L397.02 694.4L397.02 694.4L397.02 660.6801L397.02 660.6801L439.38 660.6801zM481.98 694.4L439.62 694.4L439.62 694.4L439.62 660.6801L439.62 660.6801L481.98 660.6801z" stroke="#000000" stroke-width="1" fill="none" /><path transform="matrix(1 0 0 -1 0 842)" d="M113.58 683L567.24 683" stroke="#000000" stroke-width="0.2" fill="none" /><path transform="matrix(1 0 0 -1 0 842)" d="M113.58 660.3799L567 660.3799" stroke="#000000" stroke-width="0.2" fill="none" /><path transform="matrix(1 0 0 -1 0 842)" d="M567.24 648.9799L113.58 648.9799" stroke="#000000" stroke-width="0.2" fill="none" /><path transform="matrix(1 0 0 -1 0 842)" d="M524.64 660.3799L524.64 626.5999" stroke="#000000" stroke-width="0.2" fill="none" /><path transform="matrix(1 0 0 -1 0 842)" d="M482.0399 660.3799L482.0399 626.5999" stroke="#000000" stroke-width="0.2" fill="none" /><path transform="matrix(1 0 0 -1 0 842)" d="M439.6199 660.6199L439.6199 626.5999" stroke="#000000" stroke-width="0.2" fill="none" /><path transform="matrix(1 0 0 -1 0 842)" d="M397.0199 660.3798L397.0199 626.5999" stroke="#000000" stroke-width="0.2" fill="none" /><path transform="matrix(1 0 0 -1 0 842)" d="M354.4199 660.3798L354.4199 626.5999" stroke="#000000" stroke-width="0.2" fill="none" /><path transform="matrix(1 0 0 -1 0 842)" d="M235.6199 660.3798L235.6199 626.5999" stroke="#000000" stroke-width="0.2" fill="none" /><path transform="matrix(1 0 0 -1 0 842)" d="M178.9799 660.3798L178.9799 626.5999" stroke="#000000" stroke-width="0.2" fill="none" /><path transform="matrix(1 0 0 -1 0 842)" d="M255.42 683L255.42 660.38M272.22 683L272.22 660.38" stroke="#000000" stroke-width="0.2" stroke-dasharray="1,1" fill="none" /><path transform="matrix(1 0 0 -1 0 842)" d="M354.36 694.4L312 694.4L312 694.4L312 660.6801L312 660.6801L354.36 660.6801zM566.94 694.4L524.64 694.4L524.64 694.4L524.64 660.6801L524.64 660.6801L566.94 660.6801zM524.58 694.4L482.22 694.4L482.22 694.4L482.22 660.6801L482.22 660.6801L524.58 660.6801z" stroke="#000000" stroke-width="1" fill="none" />
<path transform="matrix(1 0 0 -1 0 842)" d="M312 660.62L312 626.6" stroke="#000000" stroke-width="0.2" fill="none" /><g transform="matrix(0.351138 0 0 0.3514286 18.78 234)">
<g transform="matrix(1 0 0 1 0 0)">

</g>
</g>

<g clip-path="url(#2)"><path transform="matrix(1 0 0 -1 0 842)" d="M0.029999 841.94L0.059998 841.94L0.059998 841.9797L0.029999 841.9797z" stroke="none" fill="#FFFFFF" fill-rule="nonzero" /></g><path transform="matrix(1 0 0 -1 0 842)" d="M235.56 402.2L178.8 402.2L178.8 402.2L178.8 379.7L178.8 379.7L235.56 379.7z" stroke="#000000" stroke-width="0.2" fill="#E4E4E4" fill-rule="evenodd" /><path transform="matrix(1 0 0 -1 0 842)" d="M566.94 368.24L113.4 368.24L113.4 368.24L113.4 345.86L113.4 345.86L566.94 345.86z" stroke="#FFFFFF" stroke-width="0.2" fill="#E4E4E4" fill-rule="evenodd" /><path transform="matrix(1 0 0 -1 0 842)" d="M567.18 413.6L113.58 413.6L113.58 413.6L113.58 345.68L113.58 345.68L567.18 345.68z" stroke="#000000" stroke-width="0.2" fill="none" /><path transform="matrix(1 0 0 -1 0 842)" d="M566.94 402.2L312 402.2L312 402.2L312 379.7L312 379.7L566.94 379.7z" stroke="#FFFFFF" stroke-width="0.2" fill="#E4E4E4" fill-rule="evenodd" /><path transform="matrix(1 0 0 -1 0 842)" d="M566.76 527L28.20001 527L28.20001 527L28.20001 413.66L28.20001 413.66L566.76 413.66z" stroke="#000000" stroke-width="0.2" fill="none" />
<path transform="matrix(1 0 0 -1 0 842)" d="M566.82 515.6L28.20001 515.6" stroke="#000000" stroke-width="0.2" fill="none" /><path transform="matrix(1 0 0 -1 0 842)" d="M566.82 498.62L28.20001 498.62" stroke="#000000" stroke-width="0.2" fill="none" /><path transform="matrix(1 0 0 -1 0 842)" d="M566.82 487.2199L28.20001 487.2199" stroke="#000000" stroke-width="0.2" fill="none" /><path transform="matrix(1 0 0 -1 0 842)" d="M566.82 470.2399L28.20001 470.2399" stroke="#000000" stroke-width="0.2" fill="none" /><path transform="matrix(1 0 0 -1 0 842)" d="M566.82 459.0199L28.20001 459.0199" stroke="#000000" stroke-width="0.2" fill="none" /><path transform="matrix(1 0 0 -1 0 842)" d="M566.82 436.2199L28.20001 436.2199" stroke="#000000" stroke-width="0.2" fill="none" /><path transform="matrix(1 0 0 -1 0 842)" d="M108.36 405.02C 108.36 408.14 105.84 410.6 102.72 410.6L102.72 410.6L37.56 410.6C 34.44 410.6 31.98 408.14 31.98 405.02L31.98 405.02L31.98 348.32C 31.98 345.2 34.44 342.68 37.56 342.68L37.56 342.68L102.72 342.68C 105.84 342.68 108.36 345.2 108.36 348.32z" stroke="#000000" stroke-width="0.2" fill="none" /><path transform="matrix(1 0 0 -1 0 842)" d="M49.62 527L49.62 498.62" stroke="#000000" stroke-width="0.2" fill="none" /><path transform="matrix(1 0 0 -1 0 842)" d="M66.6 527L66.6 498.62" stroke="#000000" stroke-width="0.2" fill="none" /><path transform="matrix(1 0 0 -1 0 842)" d="M384 527L384 498.62" stroke="#000000" stroke-width="0.2" fill="none" /><path transform="matrix(1 0 0 -1 0 842)" d="M112.02 527L112.02 498.62" stroke="#000000" stroke-width="0.2" fill="none" /><path transform="matrix(1 0 0 -1 0 842)" d="M296.4 527L296.4 498.62" stroke="#000000" stroke-width="0.2" fill="none" /><path transform="matrix(1 0 0 -1 0 842)" d="M346.02 527L346.02 498.62" stroke="#000000" stroke-width="0.2" fill="none" /><path transform="matrix(1 0 0 -1 0 842)" d="M424.8 527L424.8 498.62" stroke="#000000" stroke-width="0.2" fill="none" /><path transform="matrix(1 0 0 -1 0 842)" d="M441.5999 498.62L441.5999 527" stroke="#000000" stroke-width="0.2" fill="none" /><path transform="matrix(1 0 0 -1 0 842)" d="M518.8199 470.24L518.8199 527" stroke="#000000" stroke-width="0.2" fill="none" /><path transform="matrix(1 0 0 -1 0 842)" d="M177.1799 498.62L177.1799 470.24" stroke="#000000" stroke-width="0.2" fill="none" /><path transform="matrix(1 0 0 -1 0 842)" d="M208.3799 498.62L208.3799 470.24" stroke="#000000" stroke-width="0.2" fill="none" /><path transform="matrix(1 0 0 -1 0 842)" d="M388.7999 498.62L388.7999 470.24" stroke="#000000" stroke-width="0.2" fill="none" /><path transform="matrix(1 0 0 -1 0 842)" d="M473.3999 498.62L473.3999 470.24" stroke="#000000" stroke-width="0.2" fill="none" /><path transform="matrix(1 0 0 -1 0 842)" d="M518.8199 436.2199L518.8199 470.2399" stroke="#000000" stroke-width="0.2" fill="none" />
<path transform="matrix(1 0 0 -1 0 842)" d="M346.0199 470.2399L346.0199 436.2199" stroke="#000000" stroke-width="0.2" fill="none" /><path transform="matrix(1 0 0 -1 0 842)" d="M242.9999 470.2399L242.9999 436.2199" stroke="#000000" stroke-width="0.2" fill="none" />
<path transform="matrix(1 0 0 -1 0 842)" d="M224.5798 470.2399L224.5798 436.2199" stroke="#000000" stroke-width="0.2" fill="none" /><path transform="matrix(1 0 0 -1 0 842)" d="M137.3998 470.2399L137.3998 436.2199" stroke="#000000" stroke-width="0.2" fill="none" /><path transform="matrix(1 0 0 -1 0 842)" d="M117.5998 470.2399L117.5998 436.2199" stroke="#000000" stroke-width="0.2" fill="none" /><path transform="matrix(1 0 0 -1 0 842)" d="M97.79984 470.2399L97.79984 436.2199" stroke="#000000" stroke-width="0.2" fill="none" /><path transform="matrix(1 0 0 -1 0 842)" d="M49.61983 436.2199L49.61983 413.8399" stroke="#000000" stroke-width="0.2" fill="none" />
<path transform="matrix(1 0 0 -1 0 842)" d="M314.8198 436.2199L314.8198 413.5999" stroke="#000000" stroke-width="0.2" fill="none" /><path transform="matrix(1 0 0 -1 0 842)" d="M335.9998 436.2199L335.9998 413.5999" stroke="#000000" stroke-width="0.2" fill="none" /><path transform="matrix(1 0 0 -1 0 842)" d="M235.56 413.6L178.8 413.6L178.8 413.6L178.8 379.7L178.8 379.7L235.56 379.7zM396.96 413.6L354.6 413.6L354.6 413.6L354.6 379.88L354.6 379.88L396.96 379.88zM439.38 413.6L397.02 413.6L397.02 413.6L397.02 379.88L397.02 379.88L439.38 379.88zM481.98 413.6L439.62 413.6L439.62 413.6L439.62 379.88L439.62 379.88L481.98 379.88z" stroke="#000000" stroke-width="1" fill="none" /><path transform="matrix(1 0 0 -1 0 842)" d="M113.58 402.2L567.24 402.2" stroke="#000000" stroke-width="0.2" fill="none" /><path transform="matrix(1 0 0 -1 0 842)" d="M113.58 379.64L567 379.64" stroke="#000000" stroke-width="0.2" fill="none" /><path transform="matrix(1 0 0 -1 0 842)" d="M567.24 368.24L113.58 368.24" stroke="#000000" stroke-width="0.2" fill="none" /><path transform="matrix(1 0 0 -1 0 842)" d="M524.64 379.64L524.64 345.8" stroke="#000000" stroke-width="0.2" fill="none" /><path transform="matrix(1 0 0 -1 0 842)" d="M482.0399 379.64L482.0399 345.8" stroke="#000000" stroke-width="0.2" fill="none" /><path transform="matrix(1 0 0 -1 0 842)" d="M439.6199 379.8199L439.6199 345.8" stroke="#000000" stroke-width="0.2" fill="none" /><path transform="matrix(1 0 0 -1 0 842)" d="M397.0199 379.6399L397.0199 345.7999" stroke="#000000" stroke-width="0.2" fill="none" />
<path transform="matrix(1 0 0 -1 0 842)" d="M354.4199 379.6399L354.4199 345.7999" stroke="#000000" stroke-width="0.2" fill="none" /><path transform="matrix(1 0 0 -1 0 842)" d="M235.6199 379.6399L235.6199 345.7999" stroke="#000000" stroke-width="0.2" fill="none" /><path transform="matrix(1 0 0 -1 0 842)" d="M178.9799 379.6399L178.9799 345.7999" stroke="#000000" stroke-width="0.2" fill="none" /><path transform="matrix(1 0 0 -1 0 842)" d="M255.42 402.2L255.42 379.64M272.22 402.2L272.22 379.64" stroke="#000000" stroke-width="0.2" stroke-dasharray="1,1" fill="none" /><path transform="matrix(1 0 0 -1 0 842)" d="M354.36 413.6L312 413.6L312 413.6L312 379.88L312 379.88L354.36 379.88zM566.94 413.6L524.64 413.6L524.64 413.6L524.64 379.88L524.64 379.88L566.94 379.88zM524.58 413.6L482.22 413.6L482.22 413.6L482.22 379.88L482.22 379.88L524.58 379.88z" stroke="#000000" stroke-width="1" fill="none" /><path transform="matrix(1 0 0 -1 0 842)" d="M312 379.82L312 345.8" stroke="#000000" stroke-width="0.2" fill="none" /><g transform="matrix(0.351138 0 0 0.3514286 18.78 514.8)">
<g transform="matrix(1 0 0 1 0 0)">
</g></g>


<g transform="matrix(0.351138 0 0 0.3514286 18.78 795.54)">
<g transform="matrix(1 0 0 1 0 0)">
</g></g>



<path transform="matrix(1 0 0 -1 0 842)" d="M566.58 55.46L565.7401 55.46L565.7401 55.46L565.7401 7.879997L565.7401 7.879997L566.58 7.879997z" stroke="#353535" stroke-width="0.06" fill="none" />

<g clip-path="url(#3)"><path transform="matrix(1 0 0 -1 0 842)" d="M0 564.44L19.62 564.44" stroke="#000000" stroke-width="0.2" fill="none" /></g><g clip-path="url(#4)"><path transform="matrix(1 0 0 -1 0 842)" d="M575.4 564.44L595.2 564.44" stroke="#000000" stroke-width="0.2" fill="none" /></g><g clip-path="url(#5)"><path transform="matrix(1 0 0 -1 0 842)" d="M0 283.64L19.8 283.64" stroke="#000000" stroke-width="0.2" fill="none" /></g><g clip-path="url(#6)"><path transform="matrix(1 0 0 -1 0 842)" d="M575.4 283.64L595.2 283.64" stroke="#000000" stroke-width="0.2" fill="none" /></g></g></g></svg>